<?xml version="1.0" encoding="utf-8"?>
<!-- Generator: Adobe Illustrator 19.1.0, SVG Export Plug-In . SVG Version: 6.00 Build 0)  -->
<svg version="1.1" id="Capa_1" xmlns="http://www.w3.org/2000/svg" xmlns:xlink="http://www.w3.org/1999/xlink" x="0px" y="0px"
	 viewBox="0 0 512 512" style="enable-background:new 0 0 512 512;" xml:space="preserve">
<style type="text/css">
	.st0{fill:#FFFFFF;}
</style>
<g>
	<g id="extension">
		<path class="st0" d="M426.4,204.5h-28.6v-76.2c0-21-17.1-38.1-38.1-38.1h-76.2V61.6c0-26.7-21-47.6-47.6-47.6s-47.6,21-47.6,47.6
			v28.6h-76.2c-21,0-38.1,17.1-38.1,38.1v72.4h28.6c28.6,0,51.4,22.9,51.4,51.4c0,28.6-22.9,51.4-51.4,51.4H74v72.4
			c0,21,17.1,38.1,38.1,38.1h72.4v-28.6c0-28.6,22.9-51.4,51.4-51.4s51.4,22.9,51.4,51.4V414h72.4c21,0,38.1-17.1,38.1-38.1v-76.2
			h28.6c26.7,0,47.6-21,47.6-47.6C474,225.4,453,204.5,426.4,204.5z"/>
	</g>
</g>
</svg>
