<?xml version="1.0" encoding="utf-8"?>
<!-- Generator: Adobe Illustrator 19.1.0, SVG Export Plug-In . SVG Version: 6.00 Build 0)  -->
<svg version="1.1" id="Layer_1" xmlns="http://www.w3.org/2000/svg" xmlns:xlink="http://www.w3.org/1999/xlink" x="0px" y="0px"
	 viewBox="0 0 512 512" style="enable-background:new 0 0 512 512;" xml:space="preserve">
<style type="text/css">
	.st0{fill:#FFFFFF;}
</style>
<g id="GGAy1B_1_">
	<g>
		<path class="st0" d="M113.9,437C102.4,424,93.8,416.4,88,407c-3.7-6.1-5.3-15.2-4-22.3c6.5-34.9-3.1-55.5-35.1-71.2
			c-13.3-6.5-19.2-42.1-7.9-53.6c22.4-22.8,24.2-48.3,8.3-73.9c-12.5-20.1-4.5-36.7,3.5-53.9c1.3-2.8,8.4-4.7,12.4-4.1
			c25.3,4,44.2-11.5,44.7-37.6c0.1-3.4-0.1-6.8,0.1-10.2c1.4-23.7,9.4-34.1,32.2-39.9c3.4-0.9,9.1,1.8,11.7,4.7
			c3.7,4,6,9.6,7.9,14.8c11.3,30.8,48.4,34.6,66.9,7.5c14.3-21,31.4-27.5,55.6-25.9c19,1.3,38.3-1.2,57.4-3.1
			c23.2-2.2,36,14.3,51.3,28.5c-33.2,2.8-66.5,5.7-103.7,8.9c-1,23-4.2,46.6-2.5,70c1.6,23.5,20.7,37.7,43.5,42.9
			c32,7.2,62.4-1.6,93.4-5.4c14.3-1.7,28.6-4.1,43.8-6.2c3.3,19,6.2,36,9.3,52.9c2.1,11.5-6.7,13.2-14,14.9
			c-26.1,6.2-52.5,11.3-78.6,17.5c-54.9,13.1-84.2,52.1-50.4,107c5.8,9.5,11,19.3,16.2,28.5c31.3-8.5,62.5-16.9,93.7-25.3
			c0.9-0.2,2.1,0.6,5.7,1.8c-12.2,15.7-17,35.7-39.9,41.5c-26,6.6-51.3,16-77.2,23c-5.9,1.6-13.5-0.5-19.6-2.7
			c-11.6-4.1-22.4-10.4-34.2-14c-22.4-6.7-41.8,7.7-43.4,30.6c-0.7,9.5-2.6,18.9-3.9,28.1c-28.3,7-36.3,2-49.9-21.4
			c-17.3-29.7-32.1-59.7-31-96.8c6.2,1.8,13.2,4.7,20.4,5.7c41.2,5.3,68-12,81.5-51.6c16-47,6.3-90.2-21.6-129.3
			c-19.6-27.4-49.1-37.9-81-29.6c-30,7.9-42.9,34-50.6,62.6c-9.7,36,2.4,70.2,7.6,104.9c4.2,28.7,11.3,57,15.5,85.7
			C123,418.2,117.6,426.1,113.9,437z"/>
		<path class="st0" d="M397,80.6c-7.7,47.9-7.7,47.9,15.7,88.1c-20.5,2.9-40,5.7-59.5,8.4c-1.1,0.2-2.5,0.3-3.3-0.3
			c-17.1-12.1-34.5-23.9-51-36.7c-2.4-1.9-1.6-8.6-1.5-13c0.5-39.7,0.7-39.5,39.7-41.1C356.4,85.1,375.9,82.5,397,80.6z"/>
		<path class="st0" d="M436.9,266.8c-21.1,32.2-7.9,59.7,8,87.6c-28.8,8.2-54.8,16-81.1,22.8c-3.3,0.8-8.9-3.3-11.8-6.6
			c-4.1-4.5-6.5-10.5-10-15.6c-8.4-12.3-9.6-23.2,4-33.3c4.7-3.5,10-9.3,10.8-14.6c3.7-24.2,21.7-28.9,41-32.6
			C409.6,272,421.5,269.8,436.9,266.8z"/>
		<path class="st0" d="M214.9,269c-0.3,4.5,0.2,9.2-0.9,13.5c-4.6,17.7-13.1,33.9-32.3,36.9c-18.5,2.9-31.5-8.9-40.4-24.7
			c-12.3-21.8-15.4-44.2-3.1-67.1c13.4-25.1,37.3-29.7,57-7.2c11.1,12.7,15.9,30.9,23.6,46.7C217.4,267.7,216.1,268.4,214.9,269z"/>
		<path class="st0" d="M267.9,34.3c-27.8-5.9-39.6,14.1-52.7,30C197.4,56.4,181,49,164.5,41.6c0.5-2.5,0.9-5,1.4-7.5
			c33.3-2,66.7-3.9,100-5.9C266.6,30.3,267.2,32.3,267.9,34.3z"/>
	</g>
</g>
</svg>
