<?xml version="1.0" encoding="utf-8"?>
<!-- Generator: Adobe Illustrator 19.1.0, SVG Export Plug-In . SVG Version: 6.00 Build 0)  -->
<svg version="1.1" id="Layer_1" xmlns="http://www.w3.org/2000/svg" xmlns:xlink="http://www.w3.org/1999/xlink" x="0px" y="0px"
	 viewBox="-225 227 60 60" style="enable-background:new -225 227 60 60;" xml:space="preserve">
<style type="text/css">
	.st0{display:none;fill:#20C3E0;stroke:#FFFFFF;stroke-miterlimit:10;}
	.st1{fill:#20C3E0;stroke:#FFFFFF;stroke-miterlimit:10;}
	.st2{fill:#FFFFFF;}
</style>
<path class="st0" d="M-171.5,287h-47c-3.6,0-6.5-2.9-6.5-6.5v-47c0-3.6,2.9-6.5,6.5-6.5h46.9c3.6,0,6.5,2.9,6.5,6.5v46.9
	C-165,284.1-167.9,287-171.5,287z"/>
<circle class="st1" cx="-195" cy="257" r="27.5"/>
<g>
	<path class="st2" d="M-211.3,258.7h3.6c-0.1-0.6-0.1-1.1-0.1-1.7l0,0l0,0c0-7.1,5.8-12.9,12.9-12.9c3.6,0,6.9,1.5,9.3,4l-5,5h8h4.5
		h0.4v-12.9l-4.8,4.8c-3.1-3.2-7.5-5.2-12.3-5.2c-9.3,0-16.9,7.5-17.1,16.7l0,0v0.4v0.4v1.3h0.1H-211.3z"/>
	<path class="st2" d="M-177.9,256.6L-177.9,256.6v-1.3h-0.1h-0.8h-3.6c0.1,0.6,0.1,1.1,0.1,1.7l0,0l0,0l0,0
		c0,7.1-5.8,12.9-12.9,12.9c-3.6,0-6.9-1.5-9.3-4l5-5h-8h-4.5h-0.4v12.9l4.8-4.8c3.1,3.2,7.5,5.2,12.3,5.2c9.3,0,16.9-7.5,17.1-16.7
		l0,0V256.6z"/>
</g>
</svg>
